<svg width="720" height="720" viewBox="0 0 720 720" xmlns="http://www.w3.org/2000/svg" style="background:#ffef91"><title>tofino</title><g fill="none" fill-rule="evenodd"><g transform="rotate(-10 851.712 -218.497)"><path d="M241.556 262.047l26.15-237.58m26.72 245.503l21.151-237.666m-74.073 232.742l-22.168 238.65m75.142-236.725l-27.185 239.562m-25.141-234.516L177.399 41.94M294.14 259.558L224.72 31.274m18.507 243.544l68.845 229.576m-19.007-247.636l64.536 232.301M246.439 281.038L100.213 91.972m189.762 158.039L140.092 64.355m108.393 218.877l149.833 187.07M287.929 247.817l146.858 191.211M253.793 287.796L47.389 167.274m235.147 75.446L74.019 126.73m182.493 162.334l209 117.32M279.817 241.452l207.794 122.274m-223.564-72.282l-237.58-26.15m245.503-26.72L34.305 217.423m232.741 74.073l238.65 22.168m-236.725-75.142l239.562 27.185m-234.516 25.141L43.94 355.601M261.558 238.86L33.274 308.28m243.544-18.507l229.576-68.845m-247.636 19.007l232.301-64.536M283.038 286.561L93.972 432.787m158.039-189.762L66.355 392.908m218.877-108.393l187.07-149.833M249.817 245.071L441.028 98.213M289.796 279.207L169.274 485.611m75.446-235.147L128.73 458.981m162.334-182.493l117.32-209M243.452 253.183L365.726 45.389" stroke="#10D7A6" stroke-width="10" stroke-linecap="square"/><ellipse stroke="#FFEF91" stroke-width="18" cx="267.477" cy="265.902" rx="241.477" ry="239.902"/><ellipse stroke="#10D7A6" stroke-width="20" cx="267.746" cy="266" rx="267.746" ry="266"/></g><path fill="#FFEF91" d="M12.945 343.935l666.715-117.56 26.395 149.69L39.34 493.625z"/><text transform="rotate(-10 360 358.5)" font-family="TofinoPersonal-BlackItalic, Tofino Personal" font-size="92" font-style="italic" font-weight="700" letter-spacing="10.222" fill="#10D7A6"><tspan x="47" y="394">PERIWHEEL</tspan></text></g></svg>